<?xml version="1.0" standalone="no"?>
<!DOCTYPE svg PUBLIC "-//W3C//DTD SVG 20010904//EN"
 "http://www.w3.org/TR/2001/REC-SVG-20010904/DTD/svg10.dtd">
<svg version="1.0" xmlns="http://www.w3.org/2000/svg"
 width="1280.000000pt" height="1235.000000pt" viewBox="0 0 1280.000000 1235.000000"
 preserveAspectRatio="xMidYMid meet">
<metadata>
Created by potrace 1.15, written by Peter Selinger 2001-2017
</metadata>
<g transform="translate(0.000000,1235.000000) scale(0.100000,-0.100000)"
fill="#000000" stroke="none">
<path d="M7715 12331 c-110 -39 -199 -99 -336 -226 -88 -81 -102 -88 -170 -83
-49 3 -50 5 -70 111 -22 118 -93 151 -196 92 -126 -73 -151 -84 -208 -90 -33
-4 -73 -14 -90 -23 -40 -20 -272 -248 -345 -339 -61 -75 -167 -265 -221 -394
-17 -41 -50 -132 -75 -203 -49 -143 -56 -156 -89 -156 -30 0 -46 41 -80 201
-54 259 -100 398 -202 606 -54 110 -106 183 -145 204 -11 6 -50 15 -87 20 -36
5 -99 21 -139 35 -72 27 -72 27 -120 9 -32 -12 -68 -39 -112 -85 -36 -37 -96
-90 -134 -119 -38 -28 -80 -66 -93 -84 -32 -42 -83 -143 -118 -235 l-28 -73
-76 8 c-42 5 -105 8 -140 8 -61 0 -65 -2 -94 -35 -16 -20 -51 -76 -77 -125
-32 -61 -57 -96 -79 -110 -56 -35 -133 -99 -162 -135 -17 -21 -37 -67 -50
-115 -33 -124 -38 -466 -10 -820 11 -148 25 -340 31 -425 37 -521 180 -1001
424 -1415 102 -174 116 -227 60 -241 -36 -9 -85 25 -119 84 -66 115 -136 218
-263 387 -154 203 -273 336 -503 560 -281 274 -456 423 -595 505 -47 28 -133
83 -192 123 -128 87 -271 158 -445 221 -157 57 -234 76 -311 76 -56 0 -60 -2
-100 -44 -22 -24 -52 -57 -66 -73 -22 -26 -34 -31 -95 -36 -88 -8 -109 -24
-155 -113 -32 -64 -35 -76 -35 -159 l0 -90 -53 -28 c-69 -37 -80 -61 -62 -130
8 -29 15 -92 15 -142 1 -80 5 -97 34 -157 34 -71 37 -111 9 -116 -9 -2 -54 14
-100 34 -74 34 -92 38 -165 38 -77 1 -84 -1 -110 -27 -26 -25 -28 -35 -33
-125 -5 -95 -7 -101 -48 -163 l-42 -65 0 -98 c0 -57 7 -124 16 -160 20 -76 77
-200 146 -314 56 -93 281 -379 394 -501 103 -111 262 -244 403 -336 147 -96
180 -127 161 -150 -17 -21 -46 -19 -224 15 -202 38 -403 59 -651 67 -249 7
-365 -4 -649 -62 -318 -65 -318 -64 -397 -144 -41 -41 -70 -79 -74 -97 -10
-47 -33 -92 -75 -148 -51 -67 -58 -101 -35 -178 18 -58 18 -61 0 -106 -37 -95
-35 -104 39 -173 94 -89 89 -128 -19 -153 -74 -18 -94 -61 -59 -127 14 -28 14
-35 -7 -101 -22 -72 -22 -110 1 -189 16 -57 48 -89 118 -120 l64 -29 -7 -64
c-5 -50 -3 -71 10 -95 22 -44 98 -100 212 -159 227 -116 424 -149 1033 -173
311 -12 357 -10 475 24 59 17 112 8 138 -24 23 -29 22 -36 -16 -74 -24 -24
-48 -36 -92 -45 -33 -7 -103 -25 -155 -41 -52 -15 -116 -33 -142 -38 -26 -6
-69 -24 -95 -40 -27 -15 -94 -45 -149 -65 -203 -76 -452 -219 -655 -377 -79
-61 -160 -119 -180 -130 -51 -26 -252 -210 -320 -295 -81 -99 -169 -238 -186
-292 -18 -60 -10 -100 35 -184 36 -66 36 -66 24 -125 -28 -137 -12 -183 81
-230 32 -16 89 -64 152 -128 173 -176 196 -179 462 -49 84 41 166 77 183 80
67 14 45 -42 -101 -263 -144 -218 -183 -307 -183 -418 1 -79 14 -119 95 -299
60 -131 65 -136 152 -136 82 0 126 -16 141 -52 20 -45 3 -99 -49 -164 -58 -70
-58 -93 0 -177 40 -59 53 -92 70 -179 3 -15 16 -40 29 -55 l24 -28 164 -5 163
-5 60 -37 c51 -32 69 -38 117 -38 62 0 167 29 243 67 53 27 251 162 321 219
22 18 126 110 229 204 104 94 193 169 199 167 6 -2 11 -28 10 -58 -1 -40 -16
-93 -62 -209 -68 -177 -107 -295 -128 -393 -26 -126 -13 -524 21 -643 22 -78
107 -141 253 -188 29 -10 75 -33 102 -52 l50 -35 123 2 c106 2 128 -1 170 -19
135 -60 231 -3 320 190 62 134 108 128 132 -17 19 -112 82 -242 145 -298 64
-58 144 -78 355 -88 99 -5 203 -12 231 -15 70 -8 117 13 142 63 11 21 41 94
67 163 27 69 76 197 111 285 82 212 125 383 224 898 22 116 41 157 71 157 28
0 37 -33 55 -189 8 -75 21 -193 29 -262 18 -154 47 -267 120 -467 30 -84 71
-215 90 -289 55 -211 89 -274 169 -312 55 -25 97 -26 180 -5 35 10 101 16 156
16 55 0 108 6 127 13 18 8 54 42 83 79 29 36 55 66 60 66 4 0 29 -9 55 -21 64
-28 101 -20 165 38 63 56 101 111 133 190 47 115 123 442 152 654 9 63 23 157
31 209 22 140 29 845 13 1350 -17 569 -18 544 4 548 43 9 98 -75 121 -184 27
-131 181 -451 309 -641 29 -45 62 -103 72 -129 21 -59 68 -130 163 -248 39
-49 90 -125 113 -169 23 -45 63 -102 88 -127 25 -25 61 -74 80 -109 105 -197
570 -704 802 -872 118 -86 183 -126 394 -238 22 -12 82 -40 133 -62 156 -68
224 -53 238 54 8 54 -12 87 -52 87 -47 0 -182 51 -274 104 -229 131 -515 374
-742 629 -83 94 -422 546 -531 707 -43 63 -116 171 -163 240 -167 246 -508
815 -601 1005 -53 108 -55 148 -8 153 41 4 58 -16 145 -173 124 -221 339 -510
536 -719 72 -78 157 -173 187 -211 38 -49 103 -109 213 -195 86 -69 165 -132
174 -141 12 -11 19 -41 23 -107 10 -137 48 -221 181 -397 227 -300 445 -515
706 -694 47 -33 117 -90 155 -129 64 -63 76 -71 129 -82 64 -13 119 -9 143 12
28 23 44 78 59 206 8 69 20 132 26 139 14 18 75 16 153 -3 85 -21 119 -14 190
44 116 93 130 171 70 389 -63 234 -144 455 -437 1198 -130 330 -206 455 -446
735 -86 101 -118 156 -102 175 7 8 21 15 31 15 32 0 160 -73 304 -174 181
-127 218 -145 612 -307 403 -165 819 -373 998 -498 98 -69 139 -92 173 -97 59
-9 216 3 332 26 52 10 127 21 165 25 95 10 138 29 185 82 54 62 57 84 19 178
-37 92 -35 111 18 198 35 55 38 68 42 143 4 97 -10 147 -69 248 -52 89 -66
136 -50 166 11 20 17 22 64 16 28 -4 89 -9 136 -12 72 -5 90 -3 120 14 47 26
69 66 76 143 4 35 20 105 37 154 22 69 28 102 24 140 -11 105 -138 395 -221
504 -23 31 -59 83 -79 116 -47 79 -185 242 -279 332 -141 133 -391 280 -649
382 -138 55 -180 94 -131 120 53 28 878 42 1107 18 299 -31 329 -20 513 191
38 44 83 82 110 96 74 38 86 57 90 142 4 68 1 80 -32 150 -20 42 -36 80 -36
86 0 5 11 26 25 46 78 114 -39 269 -305 402 -95 48 -150 88 -150 110 0 23 18
33 90 50 79 18 339 110 354 125 7 8 16 44 19 81 8 78 15 88 113 155 123 83
170 157 145 229 -11 32 -115 184 -160 233 -14 16 -46 39 -71 52 -25 13 -76 48
-115 79 -80 64 -250 155 -345 184 -36 11 -110 27 -165 36 -55 8 -145 30 -200
48 l-100 33 -289 1 c-235 2 -291 5 -302 16 -13 12 -12 18 5 40 37 47 305 165
766 337 165 62 361 142 434 178 116 56 144 74 203 133 77 77 127 170 149 276
15 75 8 98 -62 186 -68 84 -86 116 -114 199 -14 40 -33 81 -42 92 -31 34 -251
138 -327 154 -56 12 -154 16 -476 17 -350 1 -415 -1 -475 -16 -89 -21 -244
-70 -313 -97 -63 -25 -115 -27 -137 -5 -14 15 -13 20 11 63 15 25 71 103 125
172 130 168 175 239 189 302 7 28 30 114 51 189 70 250 73 329 14 416 -30 45
-31 61 -4 137 40 113 7 192 -90 214 -28 7 -132 9 -266 7 -193 -3 -233 -7 -326
-29 -157 -38 -244 -71 -297 -113 -26 -21 -162 -151 -302 -290 -141 -138 -265
-256 -277 -263 -18 -9 -24 -8 -31 5 -14 25 2 79 64 215 117 259 236 667 238
819 1 83 0 87 -39 150 l-40 65 0 120 c0 108 -3 124 -23 157 -47 76 -147 74
-307 -7 -100 -51 -123 -54 -186 -25 -70 31 -109 27 -168 -20 -149 -118 -689
-663 -803 -811 -24 -31 -75 -116 -112 -190 -79 -155 -109 -199 -136 -199 -26
0 -42 33 -35 73 3 17 16 95 30 172 13 77 34 214 45 305 39 311 81 542 140 784
51 203 52 273 6 313 -23 20 -38 23 -101 23 -65 0 -76 3 -89 22 -9 12 -16 34
-16 49 0 105 -82 145 -205 100z m23 -193 c20 -20 14 -57 -23 -138 -39 -87 -42
-106 -19 -138 26 -37 59 -28 137 39 79 68 112 85 133 68 23 -19 16 -53 -35
-187 -80 -207 -90 -258 -126 -632 -14 -146 -34 -344 -45 -440 -10 -96 -24
-229 -29 -295 -11 -125 -14 -139 -105 -454 -31 -106 -68 -250 -82 -320 -32
-160 -24 -136 -171 -531 -183 -489 -188 -500 -405 -841 -173 -272 -211 -353
-242 -518 -24 -124 -24 -124 -110 -119 -99 7 -152 31 -176 79 -27 52 -25 83
11 159 28 60 30 69 23 138 -6 70 -5 77 30 151 22 47 44 117 55 177 11 54 40
167 65 249 65 218 165 631 177 732 5 48 34 184 63 303 30 118 64 276 76 350
12 74 39 243 60 375 21 132 41 283 45 335 3 52 10 124 16 160 24 149 94 453
131 570 21 69 45 171 53 228 17 124 34 158 101 194 50 27 84 60 216 209 83 95
145 128 176 97z m-802 -124 c12 -47 -4 -122 -71 -331 -75 -233 -137 -399 -220
-587 -81 -186 -77 -241 20 -234 51 4 62 24 115 206 23 79 55 171 71 205 25 56
71 195 144 438 30 102 74 169 109 169 13 0 27 -7 30 -16 10 -26 -23 -159 -80
-322 -83 -234 -102 -303 -130 -457 -14 -77 -33 -178 -44 -225 -10 -47 -22
-112 -25 -145 -24 -216 -138 -896 -170 -1011 -14 -49 -41 -164 -60 -255 -18
-91 -46 -213 -60 -270 -15 -57 -35 -169 -46 -248 -20 -152 -34 -185 -73 -179
-33 5 -63 77 -71 166 -4 42 -15 124 -25 182 -10 58 -24 148 -30 200 -19 160
-39 270 -74 400 -18 69 -39 154 -45 190 -7 36 -51 207 -99 380 -82 297 -87
321 -87 415 0 96 1 103 42 190 23 50 47 110 53 135 15 55 84 192 110 215 27
25 43 10 36 -34 -3 -20 -26 -101 -52 -181 -74 -235 -92 -351 -58 -384 21 -22
29 -20 53 10 23 29 32 53 101 269 65 204 161 446 195 490 14 19 78 135 142
257 64 123 130 243 146 268 73 110 139 151 153 94z m-1736 -134 c30 -16 46
-92 85 -404 20 -159 49 -353 65 -431 16 -78 38 -207 49 -286 37 -261 170
-1033 187 -1082 16 -49 54 -87 84 -87 10 0 28 9 41 19 21 17 24 28 23 83 0 34
-15 144 -32 243 -18 99 -59 340 -92 535 -33 195 -74 420 -90 500 -17 80 -48
236 -70 347 -22 112 -58 266 -80 344 -47 162 -48 192 -8 197 15 2 36 -2 48 -8
38 -20 121 -210 195 -445 26 -82 73 -232 106 -332 64 -198 125 -479 159 -725
26 -192 43 -285 85 -468 18 -80 54 -253 80 -384 25 -131 57 -273 71 -314 49
-144 107 -619 108 -882 l1 -185 -42 -91 c-24 -50 -43 -95 -43 -101 0 -6 10
-32 21 -58 47 -106 -11 -225 -109 -225 -35 0 -50 15 -58 61 -10 52 -33 85 -78
110 -69 39 -237 214 -318 334 -107 157 -232 370 -288 488 -48 103 -152 381
-208 557 -16 52 -64 199 -105 325 -41 127 -84 280 -96 340 -37 194 -100 635
-112 790 -17 212 -17 591 0 690 26 157 76 275 124 295 12 5 41 14 65 20 37 9
46 18 70 61 62 116 88 154 112 166 30 15 27 15 50 3z m1300 -155 c27 -33 -53
-224 -113 -269 -25 -19 -28 -19 -44 -3 -15 14 -15 23 -3 74 15 71 48 138 88
181 33 35 53 40 72 17z m2970 -124 c16 -31 12 -113 -9 -154 -10 -20 -52 -78
-94 -129 -85 -105 -135 -189 -179 -298 -104 -263 -393 -852 -559 -1140 -141
-245 -179 -324 -179 -372 0 -66 54 -90 104 -45 22 18 217 333 343 552 115 198
377 756 423 900 47 147 176 355 220 355 35 0 46 -41 32 -123 -13 -74 -199
-644 -298 -912 -90 -244 -318 -690 -496 -970 -40 -63 -94 -149 -121 -192 -72
-119 -317 -453 -456 -622 -202 -248 -280 -334 -549 -599 l-256 -253 -7 -107
c-4 -59 -7 -108 -8 -109 -1 -2 -18 -3 -39 -3 -28 0 -45 7 -63 26 -21 23 -24
36 -26 113 -1 70 -6 96 -23 124 -31 52 -48 125 -61 262 -11 118 -11 122 16
200 27 81 146 331 210 440 71 123 280 733 366 1070 109 430 165 552 427 940
125 186 152 219 323 407 145 158 199 222 228 270 43 72 207 205 228 185 4 -4
1 -33 -6 -65 -7 -31 -15 -74 -18 -94 l-6 -38 37 0 c51 0 93 42 102 101 9 57
47 94 110 110 40 10 65 28 141 101 95 90 124 104 143 69z m-4967 -328 c29 -17
75 -60 86 -81 7 -14 9 -50 5 -104 -12 -163 41 -883 76 -1018 4 -19 11 -69 15
-110 11 -119 58 -301 160 -614 52 -160 110 -345 131 -411 20 -66 52 -160 71
-210 48 -121 181 -388 283 -565 111 -192 136 -250 155 -345 10 -49 32 -112 57
-162 40 -79 41 -82 25 -107 -24 -36 -60 -57 -114 -67 -73 -14 -108 -56 -132
-154 -23 -95 -58 -119 -106 -70 -19 18 -25 35 -25 69 0 52 10 79 62 160 65
101 54 126 -92 211 -104 62 -294 245 -367 355 -110 167 -249 410 -294 514 -26
61 -63 147 -84 191 -20 44 -48 120 -62 170 -14 49 -40 140 -58 200 -18 61 -36
137 -39 170 -4 33 -11 74 -16 90 -47 152 -146 1261 -124 1389 16 100 79 224
102 202 4 -4 8 -56 10 -114 17 -708 64 -1048 206 -1507 24 -77 64 -213 89
-302 93 -329 168 -443 237 -355 30 38 24 76 -49 312 -94 307 -198 665 -226
781 -14 58 -45 226 -70 373 -43 256 -45 276 -45 473 0 113 -5 246 -12 294 -18
136 9 305 57 352 15 16 52 11 88 -10z m6323 -521 c23 -15 33 -49 24 -81 -16
-58 -106 -224 -209 -389 -95 -151 -139 -233 -155 -288 -5 -16 0 -27 20 -43 59
-47 110 -13 177 117 64 124 103 174 130 170 71 -10 -8 -255 -143 -443 -31 -44
-97 -145 -145 -225 -118 -195 -165 -263 -292 -426 -60 -77 -150 -193 -200
-259 -218 -286 -729 -778 -990 -953 -290 -195 -736 -429 -1057 -557 -144 -56
-189 -64 -217 -39 -12 10 -27 31 -35 46 -28 53 -18 92 62 246 65 124 89 160
153 227 88 91 132 142 327 380 210 257 226 278 434 589 258 387 304 464 438
721 164 318 206 372 422 543 160 127 238 195 404 350 189 176 306 256 437 297
56 18 89 16 89 -5 0 -45 -586 -604 -952 -907 -146 -121 -178 -160 -178 -215 0
-42 15 -58 55 -58 38 0 96 36 200 126 44 38 127 108 185 155 201 165 772 727
861 848 45 62 119 97 155 73z m-8651 -913 c177 -54 576 -266 763 -404 195
-143 912 -844 1027 -1003 33 -46 134 -183 224 -305 90 -122 237 -333 327 -468
125 -189 180 -261 233 -312 106 -99 108 -100 221 -101 110 -1 140 -15 140 -66
0 -41 -22 -52 -112 -60 -62 -6 -85 -12 -95 -26 -24 -32 -15 -76 27 -138 44
-64 48 -89 24 -125 -14 -19 -22 -22 -53 -16 -20 4 -59 19 -88 34 l-51 28 -67
-73 c-36 -41 -73 -74 -80 -74 -8 0 -56 22 -107 49 -51 27 -138 65 -193 85
-167 61 -260 105 -371 178 -59 38 -159 99 -223 135 -64 36 -147 88 -185 117
-39 28 -96 60 -127 72 -75 27 -213 106 -292 167 -34 26 -98 73 -142 104 -196
138 -523 426 -642 565 -163 189 -463 584 -504 663 -23 44 -63 114 -89 155
-134 213 -166 307 -111 325 36 11 69 -12 100 -72 35 -71 145 -238 239 -366
127 -171 250 -287 307 -287 39 0 65 28 65 70 0 45 -20 71 -174 220 -100 97
-204 237 -263 352 -42 82 -83 232 -90 325 -5 66 -4 78 12 89 68 50 227 -30
478 -239 142 -119 189 -141 231 -113 14 9 28 27 32 41 21 84 -52 151 -361 331
-106 62 -145 95 -145 126 0 10 10 23 23 28 12 5 23 9 23 9 1 1 32 -8 69 -20z
m9885 -512 c72 -36 91 -57 74 -84 -10 -15 -35 -19 -175 -25 -195 -8 -221 -12
-244 -38 -21 -23 -14 -64 12 -75 10 -4 101 -13 203 -20 362 -27 413 -42 460
-136 38 -73 19 -124 -51 -138 -18 -4 -94 -1 -168 7 -166 16 -506 10 -671 -13
-226 -31 -533 -86 -561 -100 -51 -27 -66 -88 -29 -125 28 -28 73 -26 281 10
517 88 956 128 995 89 12 -13 14 -21 5 -37 -18 -34 -62 -57 -151 -81 -154 -40
-664 -210 -739 -246 -41 -20 -95 -51 -120 -69 -25 -19 -98 -65 -161 -103 -63
-38 -180 -112 -260 -163 -330 -213 -510 -307 -849 -447 -267 -110 -465 -175
-791 -263 -146 -39 -343 -94 -439 -121 -190 -55 -289 -77 -481 -108 -69 -12
-175 -37 -237 -58 l-111 -37 -36 28 c-39 29 -55 69 -39 95 6 9 61 34 124 57
146 53 426 181 649 297 96 50 216 110 266 133 94 42 359 203 429 259 45 36
471 421 582 526 134 126 362 390 491 569 167 231 181 247 227 269 61 29 234
77 323 90 41 6 121 25 179 43 106 31 106 31 287 25 100 -3 243 -13 320 -22
l138 -16 72 35 c82 42 98 41 196 -7z m-10337 -597 c32 -63 86 -153 121 -200
35 -47 81 -113 104 -146 106 -159 336 -408 552 -599 179 -158 566 -452 705
-535 71 -42 202 -124 290 -180 294 -189 416 -254 632 -341 71 -28 154 -65 186
-82 95 -50 207 -189 207 -256 0 -52 -94 -99 -173 -87 -21 4 -62 18 -90 32 -28
15 -92 35 -142 45 -158 32 -244 68 -673 283 -151 75 -344 163 -445 201 -98 38
-202 83 -230 100 -433 266 -733 475 -876 610 -74 70 -438 491 -532 615 -68 90
-111 179 -107 221 5 60 30 49 141 -59 56 -54 118 -108 137 -120 50 -29 89 -74
155 -176 134 -206 493 -507 890 -746 154 -92 529 -279 577 -287 31 -4 38 -2
53 20 32 50 10 68 -289 236 -278 157 -382 223 -505 321 -58 47 -171 135 -251
194 -186 139 -224 176 -265 256 -18 36 -51 90 -74 120 -60 79 -212 231 -316
315 -132 107 -185 170 -206 247 -8 32 -7 44 6 64 40 61 108 50 205 -32 35 -30
73 -57 84 -60 30 -10 46 21 46 89 0 42 3 58 13 55 6 -2 38 -55 70 -118z m2875
-726 c12 -8 45 -49 72 -90 28 -41 98 -124 155 -185 129 -136 144 -178 71 -202
-39 -13 -81 8 -112 57 -43 67 -155 247 -191 306 -37 61 -48 92 -39 115 7 19
16 19 44 -1z m2421 -260 c48 -61 0 -148 -58 -107 -31 21 -43 57 -30 90 19 50
56 57 88 17z m4621 -48 c61 -21 114 -30 190 -35 98 -6 105 -7 108 -28 4 -28
-6 -30 -276 -42 -175 -8 -220 -14 -257 -30 -45 -20 -51 -30 -45 -86 4 -52 82
-57 318 -24 189 27 324 21 522 -22 75 -16 249 -108 302 -159 41 -39 48 -52 48
-84 0 -77 -17 -86 -217 -112 -164 -21 -191 -29 -199 -60 -9 -35 19 -61 85 -80
66 -18 94 -45 82 -77 -13 -35 -51 -56 -132 -71 -41 -8 -122 -28 -180 -44 -144
-42 -194 -50 -349 -57 -232 -11 -446 -52 -621 -120 -118 -45 -195 -66 -469
-124 -456 -96 -491 -102 -710 -111 -250 -11 -850 4 -1038 25 -136 16 -458 90
-548 126 -74 29 -214 180 -214 230 0 46 122 104 252 120 43 5 156 32 252 59
95 27 202 54 237 60 35 5 93 19 129 30 36 11 169 50 295 85 520 147 925 311
1308 529 138 78 234 112 349 125 45 5 220 8 388 7 l305 -2 85 -28z m-5788 -51
c25 -55 -39 -109 -82 -70 -24 22 -25 43 -4 73 22 32 71 30 86 -3z m951 -107
c21 -25 21 -40 2 -78 -31 -59 -117 -47 -123 17 -8 79 71 119 121 61z m-245
-107 c14 -9 19 -61 8 -80 -9 -15 -59 -14 -74 1 -21 21 -15 68 11 78 28 11 39
12 55 1z m-629 -17 c18 -4 57 -1 87 6 47 11 56 11 78 -4 44 -29 43 -88 -3
-123 -22 -17 -92 -15 -115 2 -31 23 -72 19 -168 -17 -26 -10 -26 -11 -14 -51
20 -67 95 -224 162 -337 33 -58 64 -113 67 -123 7 -19 -6 -35 -80 -97 -26 -22
-31 -34 -37 -95 -11 -103 -25 -149 -55 -185 l-27 -33 -37 33 c-42 36 -44 47
-20 130 16 59 16 61 -3 87 -36 48 -46 49 -117 15 -81 -40 -102 -41 -122 -2
-27 52 -16 101 42 178 37 50 56 42 99 -38 20 -38 43 -70 51 -70 20 0 74 28
101 53 30 28 28 52 -12 117 -19 30 -39 80 -45 111 -8 39 -23 69 -46 97 -64 74
-67 121 -11 170 42 37 50 50 38 65 -6 7 -13 28 -17 48 -6 31 -3 40 17 59 20
19 31 21 88 16 36 -3 80 -8 99 -12z m1666 -19 c28 -27 30 -40 14 -82 -21 -56
-99 -113 -153 -113 -28 0 -66 42 -66 72 0 31 37 94 66 113 61 40 107 43 139
10z m-2027 -67 c12 -31 12 -43 1 -80 -11 -34 -19 -44 -40 -46 -33 -4 -59 26
-66 77 -8 57 17 93 60 89 26 -2 34 -9 45 -40z m1062 -54 c41 -27 130 -116 152
-153 24 -37 15 -51 -34 -51 -113 0 -208 62 -208 137 0 44 23 83 48 83 10 0 29
-7 42 -16z m528 -6 c7 -7 12 -31 12 -55 0 -55 -30 -78 -105 -77 -72 1 -119 20
-155 60 -60 69 -40 84 115 84 81 0 125 -4 133 -12z m-772 -129 c24 -15 44 -42
69 -94 20 -40 42 -76 51 -79 9 -3 46 -6 83 -6 92 0 122 -13 161 -66 18 -25 63
-66 101 -91 80 -53 115 -110 106 -170 -12 -71 -50 -81 -129 -33 -27 17 -63 33
-79 37 -24 4 -30 1 -38 -18 -5 -14 -5 -46 0 -74 12 -78 10 -172 -5 -209 -17
-40 -77 -80 -109 -72 -13 3 -64 41 -115 86 -98 84 -129 99 -168 81 -21 -9 -24
-17 -24 -63 0 -29 5 -98 11 -153 13 -108 13 -109 -46 -215 -13 -25 -25 -55
-25 -67 0 -47 -31 -101 -62 -112 -37 -13 -95 -14 -102 -3 -12 19 34 194 64
246 24 42 33 75 41 143 16 141 9 165 -72 241 -77 72 -88 103 -41 120 47 18 81
23 169 23 72 0 93 -4 138 -26 29 -14 69 -45 89 -68 69 -82 75 -87 104 -87 57
0 67 45 28 133 -59 135 -171 193 -297 156 -34 -11 -42 -9 -83 15 -52 30 -61
50 -51 114 9 60 18 78 67 128 33 35 40 50 48 105 13 95 50 119 116 78z m-277
-28 c7 -5 14 -26 15 -46 1 -46 -20 -64 -61 -49 -50 17 -41 104 11 104 11 0 27
-4 35 -9z m1217 -35 c7 -19 -14 -58 -28 -54 -23 8 -32 36 -19 52 17 20 40 21
47 2z m-1898 -48 c39 -83 -113 -160 -164 -83 -14 21 -14 26 0 54 21 40 61 61
111 58 32 -2 42 -7 53 -29z m1818 -43 c36 -23 44 -53 28 -95 -26 -64 -72 -77
-143 -40 -80 40 -106 118 -51 148 32 17 132 9 166 -13z m-1602 -1 c28 -27 17
-84 -16 -84 -12 0 -24 12 -33 32 -22 54 12 90 49 52z m-3974 -24 c629 -54 877
-127 1565 -460 105 -51 221 -105 259 -121 41 -18 89 -47 118 -75 28 -26 84
-62 131 -84 45 -21 106 -54 134 -74 65 -45 144 -85 247 -126 43 -17 104 -49
134 -70 68 -49 102 -51 182 -9 58 30 59 30 95 13 93 -44 86 -147 -9 -130 -17
3 -46 8 -64 12 -37 7 -63 -10 -89 -60 -28 -53 -11 -87 98 -202 61 -64 99 -112
97 -122 -3 -14 -18 -17 -104 -18 -84 -1 -118 -7 -195 -32 -52 -17 -114 -34
-138 -38 -25 -3 -82 -19 -128 -35 -235 -82 -573 -55 -1149 90 -154 39 -295 71
-313 71 -81 0 -119 -61 -67 -109 32 -31 92 -47 296 -81 197 -32 255 -48 255
-70 0 -21 -103 -47 -260 -65 -277 -32 -435 -12 -670 84 -55 22 -158 59 -230
81 -71 23 -159 56 -195 74 -183 92 -516 276 -600 331 -52 34 -171 110 -264
169 -92 58 -189 123 -215 144 -25 21 -74 55 -109 76 -95 57 -149 145 -121 197
26 49 177 -4 278 -96 159 -147 562 -361 916 -487 77 -27 201 -79 275 -114 75
-35 146 -64 158 -64 32 0 72 43 72 77 0 67 -29 84 -355 208 -521 198 -744 311
-960 486 -149 122 -237 157 -410 168 l-110 6 -3 29 c-5 40 23 107 58 141 l29
28 143 -1 c79 -1 188 -8 243 -16 55 -8 177 -17 270 -21 205 -8 305 -19 376
-44 30 -11 140 -33 244 -50 240 -40 586 -112 750 -157 69 -19 194 -60 278 -93
349 -134 876 -291 932 -277 16 4 27 16 31 33 11 43 -7 75 -57 100 -61 30 -969
332 -1038 345 -30 5 -89 23 -130 40 -177 70 -674 172 -966 198 -66 6 -167 22
-225 35 -79 18 -156 26 -310 34 -222 10 -283 22 -288 57 -2 17 6 25 35 37 53
21 132 36 243 47 118 11 661 5 830 -10z m5878 -26 c12 -8 22 -19 22 -24 0 -18
-49 -42 -70 -35 -25 8 -27 50 -2 64 23 14 24 14 50 -5z m291 -168 c75 -38 121
-84 121 -122 0 -30 -26 -96 -43 -106 -24 -16 -50 -7 -94 31 -24 22 -57 43 -74
46 -44 10 -71 50 -63 94 8 41 22 73 38 83 21 14 46 8 115 -26z m-2437 -23 c23
-27 29 -53 17 -74 -8 -16 -19 -19 -52 -17 -41 3 -42 4 -45 41 -2 21 2 45 9 53
16 19 53 18 71 -3z m-644 -103 c35 -33 23 -71 -29 -89 -45 -16 -79 7 -79 52 0
18 5 38 12 45 19 19 72 14 96 -8z m2649 -40 c79 -48 86 -180 12 -210 -40 -17
-86 12 -121 75 -38 70 -36 89 14 125 48 35 53 36 95 10z m-2113 -42 c9 -12 16
-41 16 -63 0 -34 -6 -47 -38 -78 -21 -21 -56 -42 -77 -48 -32 -9 -42 -8 -64 9
-51 38 -30 143 37 185 41 25 107 22 126 -5z m6481 -62 c64 -6 172 -39 245 -76
124 -63 303 -199 320 -244 4 -12 3 -29 -2 -40 -15 -29 -72 -16 -165 38 -103
59 -240 107 -325 114 -64 4 -68 3 -76 -19 -20 -54 1 -75 132 -129 200 -83 384
-186 440 -246 33 -36 33 -64 -1 -104 -26 -31 -29 -32 -87 -27 -34 3 -153 33
-266 66 -262 79 -460 130 -531 137 -42 5 -65 2 -94 -11 -61 -30 -79 -105 -34
-142 25 -20 83 -32 284 -63 201 -30 461 -91 503 -116 16 -11 22 -24 22 -49 0
-57 -21 -61 -207 -40 -188 22 -776 26 -1038 7 -540 -38 -533 -38 -988 -8 -654
42 -765 56 -1053 126 -274 68 -440 133 -573 227 -82 58 -319 295 -346 346 -23
43 -16 63 30 86 41 20 153 1 335 -56 345 -109 420 -120 890 -134 399 -12 862
0 1038 26 57 9 192 38 300 65 108 26 247 58 307 70 61 12 211 55 335 95 214
70 341 101 440 107 45 3 54 3 165 -6z m-6139 -31 c10 -24 -16 -75 -37 -75 -17
0 -39 27 -39 49 0 33 65 55 76 26z m292 -135 c57 -35 45 -67 -75 -191 -85 -89
-92 -114 -34 -124 75 -13 106 -85 48 -117 -27 -14 -246 -23 -266 -10 -28 19
-7 268 26 319 16 25 20 25 89 20 82 -7 86 -5 104 63 7 25 14 48 17 53 8 14 58
7 91 -13z m1881 -14 c29 -26 26 -58 -6 -91 -32 -32 -97 -64 -131 -65 -83 -1
-111 116 -39 161 42 26 145 23 176 -5z m-730 -82 c29 -36 29 -112 1 -142 -44
-47 -92 -38 -130 23 -28 45 -21 91 18 127 47 44 72 42 111 -8z m-285 -103 c11
-12 16 -31 14 -53 -3 -29 -7 -33 -35 -36 -52 -5 -65 43 -25 91 19 22 25 21 46
-2z m-229 -45 c34 -34 41 -85 20 -148 -20 -63 -45 -96 -93 -125 -43 -26 -84
-29 -102 -8 -15 19 -2 77 42 182 51 123 84 148 133 99z m-6148 -149 c48 -40
113 -91 143 -114 109 -82 419 -266 620 -368 113 -58 221 -118 240 -134 34 -28
34 -30 17 -48 -16 -16 -34 -18 -145 -17 -144 1 -237 16 -500 79 -318 77 -392
105 -392 146 0 25 22 25 165 0 234 -41 305 -38 305 13 0 35 -16 43 -109 56
-58 8 -123 27 -208 61 -68 28 -162 59 -209 71 -64 16 -92 28 -115 50 -38 38
-37 60 5 111 43 54 56 80 56 111 0 34 10 56 26 56 7 0 53 -33 101 -73z m7543
13 c18 -33 8 -73 -21 -89 -24 -13 -29 -13 -53 2 -28 19 -34 53 -16 88 15 27
75 26 90 -1z m-1150 -106 c80 -68 81 -164 2 -189 -53 -16 -99 56 -89 141 5 46
21 74 42 74 8 0 27 -12 45 -26z m-1469 -116 c12 -46 -3 -81 -39 -92 -50 -14
-82 5 -82 48 0 69 104 107 121 44z m654 16 c43 -17 61 -128 26 -163 -22 -22
-79 -36 -109 -26 -54 17 -25 145 40 182 28 15 23 14 43 7z m360 -97 c34 -49
-1 -104 -73 -114 -34 -5 -42 -2 -52 17 -16 30 -15 87 1 106 31 38 95 33 124
-9z m2002 -82 c228 -43 328 -75 543 -172 276 -125 300 -137 541 -271 129 -71
289 -157 355 -191 67 -34 188 -105 270 -159 185 -123 563 -415 715 -555 137
-125 355 -348 427 -435 102 -123 214 -307 227 -372 4 -19 26 -80 50 -135 75
-174 80 -231 29 -308 -38 -57 -40 -99 -10 -186 31 -90 33 -130 5 -165 -15 -20
-29 -26 -58 -26 -50 0 -71 17 -121 100 -115 190 -262 299 -720 535 -141 72
-277 146 -303 164 -26 17 -70 39 -98 47 -65 19 -271 106 -475 200 -163 75
-211 87 -234 58 -19 -22 -16 -71 5 -94 30 -33 241 -140 521 -266 143 -63 321
-150 397 -192 375 -209 463 -261 594 -348 145 -96 173 -125 173 -179 0 -38
-16 -62 -45 -69 -31 -8 -123 37 -262 128 -201 132 -586 319 -1008 491 -201 81
-347 155 -620 310 -132 76 -274 152 -315 170 -123 53 -175 82 -304 169 -148
100 -224 160 -382 302 -66 60 -157 138 -202 172 -183 143 -330 337 -372 492
-7 25 -12 90 -11 146 1 112 -1 115 -66 157 -23 15 -50 38 -59 53 -16 24 -16
27 2 50 10 14 60 47 109 72 90 47 90 48 93 89 2 33 -1 44 -20 57 -12 9 -35 16
-51 16 -15 0 -43 7 -62 14 -27 12 -35 21 -35 40 0 39 35 69 73 63 18 -3 51 -9
74 -12 34 -6 56 -2 110 20 162 65 260 69 520 20z m-2063 -158 c16 -22 18 -31
8 -52 -10 -21 -18 -25 -51 -25 -47 0 -66 24 -56 71 12 54 61 57 99 6z m3132
14 c87 -11 206 -23 264 -26 57 -4 143 -16 190 -26 243 -51 407 -92 427 -105
13 -8 35 -38 49 -67 38 -75 75 -110 202 -189 295 -183 616 -438 843 -670 69
-70 133 -128 142 -128 51 0 63 83 21 146 -42 64 -211 229 -339 333 -142 114
-272 201 -475 317 -131 75 -210 136 -210 163 0 21 27 30 62 20 78 -21 528
-262 645 -345 89 -63 249 -217 328 -315 89 -109 269 -444 306 -567 l12 -43
-43 -44 -43 -44 6 -106 c4 -98 3 -109 -15 -127 -17 -17 -30 -20 -79 -16 -88 6
-146 51 -278 217 -199 249 -517 574 -676 691 -33 24 -105 82 -160 128 -268
224 -727 492 -1125 657 -203 84 -270 119 -270 140 0 29 18 30 216 6z m-4485
-90 c35 -36 37 -64 4 -96 -30 -30 -67 -32 -106 -4 -39 28 -52 54 -39 78 32 60
93 70 141 22z m-256 -21 c23 0 75 -50 75 -72 0 -30 -69 -94 -114 -106 -78 -22
-134 29 -106 97 20 50 85 96 118 85 8 -2 20 -4 27 -4z m-287 -192 c7 -7 12
-29 12 -50 0 -28 -6 -41 -22 -52 -13 -8 -183 -55 -379 -105 -407 -103 -606
-165 -717 -223 -221 -116 -265 -138 -284 -138 -68 0 -499 -248 -723 -415 -73
-55 -130 -80 -158 -69 -9 3 -22 24 -27 46 -6 21 -18 42 -27 45 -26 10 -157
-34 -308 -102 -191 -87 -871 -439 -970 -502 -133 -86 -172 -139 -135 -185 41
-53 103 -41 212 40 59 43 235 140 453 250 78 38 195 103 260 142 131 79 327
181 395 205 139 49 99 -10 -142 -207 -87 -70 -172 -146 -190 -169 -17 -22 -61
-59 -98 -83 -36 -24 -122 -98 -192 -164 -105 -100 -134 -122 -165 -127 -87
-13 -360 -110 -470 -167 -95 -49 -122 -59 -156 -56 -40 3 -42 5 -45 37 -3 24
6 48 32 91 45 72 54 111 31 133 -27 27 -71 21 -112 -17 -69 -61 -107 -71 -138
-36 -13 14 -19 36 -19 69 0 70 46 146 115 192 61 41 170 153 194 200 15 28 15
33 0 55 -11 17 -25 24 -46 24 -39 0 -63 -13 -123 -67 -58 -52 -93 -64 -113
-38 -7 11 -13 22 -13 25 0 44 284 339 440 457 128 96 308 198 660 372 471 234
766 351 990 394 198 39 377 65 630 93 124 13 284 33 355 44 162 24 331 38 645
54 329 18 334 18 348 4z m3052 -103 c7 -9 15 -38 18 -65 l4 -48 -37 -11 c-57
-16 -85 6 -85 66 0 61 66 99 100 58z m-2630 -110 c12 -15 10 -61 -6 -126 -9
-38 37 -89 81 -89 31 0 45 7 169 93 50 35 95 35 126 1 l24 -25 -18 -47 c-31
-82 -31 -95 3 -114 35 -19 41 -51 14 -80 -32 -36 -85 -17 -103 36 -9 27 -20
38 -47 47 -78 26 -190 -17 -315 -122 -106 -88 -443 -406 -838 -789 -408 -396
-457 -442 -575 -542 -49 -42 -101 -88 -115 -103 -55 -60 -101 -88 -168 -102
-72 -15 -113 -36 -226 -117 -40 -29 -100 -63 -132 -76 -72 -28 -112 -51 -184
-105 -30 -23 -111 -76 -180 -119 -69 -42 -298 -201 -510 -352 -212 -151 -405
-284 -429 -295 -24 -12 -60 -22 -80 -23 -33 -1 -36 2 -39 28 -3 21 7 45 35 85
54 77 66 111 54 144 -20 51 -75 45 -162 -19 -27 -19 -61 -36 -76 -37 -24 -2
-28 2 -31 27 -6 52 8 94 54 163 26 38 84 132 130 211 113 194 188 299 343 482
189 223 216 249 342 332 63 41 154 107 204 147 124 99 292 214 405 276 52 28
201 113 330 187 129 74 271 154 315 178 44 24 94 53 112 66 17 13 87 50 155
82 68 33 137 73 156 91 68 69 23 145 -71 120 -63 -17 -504 -242 -737 -377
-113 -65 -265 -152 -338 -192 -74 -40 -148 -85 -165 -100 -18 -15 -73 -55
-124 -88 -51 -34 -143 -104 -205 -155 -62 -50 -152 -122 -200 -159 -136 -107
-459 -459 -514 -563 -15 -27 -50 -84 -79 -125 -28 -41 -77 -119 -108 -172 -57
-97 -86 -128 -119 -128 -9 0 -22 9 -28 20 -16 30 4 93 59 185 27 44 61 105 76
135 50 100 170 273 261 380 50 58 171 182 270 276 413 395 502 463 1019 781
294 181 305 187 443 242 55 22 158 64 228 94 145 61 231 89 320 106 34 6 162
42 285 80 123 38 242 72 264 75 22 4 88 23 146 44 l106 36 89 -13 c49 -8 103
-16 121 -18 28 -5 34 -1 59 38 59 92 96 118 124 84z m2573 -236 c63 -33 167
-144 217 -231 28 -50 57 -86 84 -105 23 -16 118 -99 211 -184 94 -85 215 -193
271 -241 174 -149 436 -442 556 -621 34 -50 87 -126 118 -167 31 -41 90 -131
132 -200 41 -69 93 -155 115 -191 57 -91 149 -277 162 -326 6 -23 47 -122 90
-220 77 -174 97 -228 159 -423 16 -52 59 -158 95 -236 84 -179 119 -283 120
-357 1 -48 -2 -62 -18 -74 -34 -25 -96 -11 -162 36 -32 23 -86 61 -119 85 -34
24 -104 93 -157 153 -52 60 -106 115 -121 122 -23 13 -28 12 -47 -5 -26 -24
-20 -60 21 -124 33 -52 41 -110 14 -110 -32 0 -272 181 -504 378 -277 237
-427 383 -708 692 -452 496 -532 590 -681 805 -46 66 -118 163 -160 215 -76
95 -101 137 -258 435 -47 88 -89 165 -94 171 -22 27 -39 104 -49 222 -9 115
-14 134 -45 194 -41 80 -44 110 -10 143 56 57 143 18 152 -68 7 -55 29 -77 80
-77 44 0 83 38 131 125 41 76 36 74 134 59 89 -13 94 -9 148 124 13 29 66 30
123 1z m-1008 -104 c56 -55 6 -195 -70 -195 -46 0 -110 69 -100 108 10 40 32
71 68 92 43 27 73 25 102 -5z m-490 -20 c46 -45 24 -119 -39 -131 -71 -13
-107 27 -86 92 21 64 82 83 125 39z m-516 -178 c18 -8 32 -30 47 -72 11 -33
43 -109 70 -170 44 -99 49 -117 49 -185 0 -74 -2 -78 -82 -245 -97 -203 -148
-331 -174 -442 -10 -46 -46 -171 -79 -278 -67 -220 -90 -307 -124 -485 -14
-69 -45 -224 -70 -345 -25 -121 -46 -231 -46 -244 0 -13 -23 -68 -50 -123 -83
-162 -169 -410 -195 -560 -8 -47 -31 -131 -50 -185 -51 -139 -67 -193 -124
-408 -88 -334 -105 -375 -149 -361 -36 12 -37 50 -4 215 53 260 52 321 -2 321
-69 0 -99 -92 -135 -417 -11 -95 -25 -181 -30 -192 -28 -51 -99 -32 -131 35
-19 38 -22 67 -27 231 -7 230 12 717 32 850 44 297 148 690 325 1228 147 446
156 516 69 523 -49 4 -66 -19 -120 -156 -69 -180 -255 -747 -303 -927 -124
-466 -173 -890 -155 -1356 4 -107 4 -210 0 -229 -15 -73 -69 -37 -101 67 -54
174 -75 401 -67 728 5 210 10 269 42 470 56 353 118 602 255 1015 77 231 106
299 169 398 28 43 62 108 76 145 81 217 316 582 564 879 87 103 120 133 243
218 111 76 199 95 277 57z m928 -57 c17 -38 0 -123 -39 -183 -48 -74 -44 -119
26 -347 52 -171 80 -294 105 -460 5 -36 17 -97 25 -135 46 -212 47 -1611 1
-1905 -8 -52 -20 -144 -25 -205 -15 -161 -27 -225 -67 -365 -43 -149 -67 -208
-88 -216 -10 -4 -29 8 -54 35 -21 22 -43 41 -50 41 -29 0 -49 -21 -55 -58 -3
-22 -20 -57 -38 -79 -18 -23 -57 -71 -87 -108 -64 -79 -94 -94 -130 -67 -24
18 -32 37 -82 200 -31 101 -81 139 -124 92 -16 -18 -17 -33 -12 -144 5 -103 3
-127 -9 -137 -12 -10 -20 -9 -41 7 -30 23 -39 45 -92 234 -23 80 -68 230 -101
334 -72 227 -129 505 -140 691 -13 197 8 564 46 805 59 383 233 1017 351 1285
22 50 53 126 68 169 62 175 224 356 332 372 42 6 56 15 108 69 64 67 121 107
145 102 8 -1 20 -13 27 -27z m-1678 -207 c12 -22 -5 -56 -73 -141 -28 -36
-110 -149 -183 -251 -128 -181 -206 -317 -366 -636 -66 -132 -178 -425 -217
-570 -12 -44 -37 -123 -56 -175 -53 -151 -71 -232 -83 -385 -5 -55 -20 -147
-34 -205 -14 -58 -30 -145 -36 -193 -16 -125 -45 -195 -211 -522 -80 -159
-164 -335 -184 -390 -21 -55 -45 -120 -55 -145 -18 -49 -49 -68 -95 -56 -34 9
-46 40 -46 126 0 173 69 667 116 835 27 93 199 558 229 614 9 18 31 52 49 76
19 24 46 76 61 117 15 40 79 173 142 295 123 240 147 296 137 325 -7 23 -46
24 -80 1 -46 -30 -265 -364 -305 -465 -11 -28 -57 -132 -103 -232 -78 -168
-243 -570 -280 -678 -61 -183 -94 -385 -106 -658 -6 -118 -15 -227 -21 -243
-16 -38 -53 -46 -84 -17 -45 43 -50 76 -50 360 0 259 1 267 29 375 40 154 141
463 186 565 20 47 45 109 54 139 21 64 168 361 274 551 181 326 328 520 637
840 56 58 142 152 191 210 181 215 512 550 543 550 6 0 14 -8 20 -17z m1958
-195 c29 -27 29 -55 1 -85 -27 -29 -36 -29 -65 -1 -27 25 -30 64 -6 90 21 24
42 23 70 -4z m-3429 -1120 c29 -29 3 -85 -116 -254 -104 -147 -133 -199 -166
-293 l-31 -85 -88 -62 c-135 -94 -399 -301 -522 -409 -168 -149 -355 -275
-407 -275 -32 0 -41 12 -48 65 -5 37 -8 40 -38 43 -38 4 -101 -30 -144 -76
-54 -59 -207 -56 -222 4 -8 31 18 133 49 194 28 56 63 87 153 137 95 52 173
106 250 172 147 125 322 248 562 396 96 59 274 172 395 250 217 140 327 205
349 205 7 0 17 -5 24 -12z m5147 -1105 c22 -14 94 -72 160 -127 331 -278 544
-437 697 -520 81 -44 98 -71 105 -170 5 -66 4 -73 -20 -94 -33 -31 -46 -26
-165 62 -234 175 -460 385 -688 641 -130 145 -172 205 -159 225 10 16 28 12
70 -17z m-4742 -693 c14 -54 -7 -187 -42 -264 -44 -97 -139 -263 -173 -302
-23 -26 -38 -34 -63 -34 -61 0 -55 34 46 247 33 70 79 171 100 223 70 166 112
208 132 130z"/>
<path d="M7511 11348 c-35 -36 -78 -134 -115 -262 -31 -106 -32 -126 -6 -158
37 -48 97 -41 126 14 28 54 105 289 111 340 5 41 2 50 -20 72 -34 34 -58 33
-96 -6z"/>
<path d="M7331 10534 c-43 -55 -86 -208 -116 -414 -9 -63 -30 -164 -46 -225
-16 -60 -54 -208 -84 -328 -30 -120 -68 -264 -84 -320 -48 -170 -47 -206 8
-233 69 -35 113 58 212 446 28 107 68 256 90 330 49 163 78 291 79 345 0 22
11 89 25 149 36 161 40 196 22 239 -14 33 -20 37 -51 37 -25 0 -40 -7 -55 -26z"/>
<path d="M4946 11458 c-37 -59 -41 -98 -40 -363 1 -337 26 -549 73 -606 14
-17 24 -20 45 -15 44 11 49 41 37 231 -6 94 -15 271 -21 395 -10 230 -18 332
-26 363 -8 25 -51 22 -68 -5z"/>
<path d="M5112 10015 c-52 -37 -45 -106 38 -380 130 -432 184 -537 264 -521
17 4 35 11 40 16 16 16 -18 157 -75 315 -27 77 -68 204 -90 282 -50 181 -74
244 -104 277 -28 30 -42 32 -73 11z"/>
<path d="M8700 10953 c-61 -69 -218 -307 -360 -543 -142 -236 -320 -577 -320
-613 0 -61 68 -96 118 -61 41 29 181 285 242 443 18 46 58 122 90 170 364 549
364 550 358 613 -3 31 -5 33 -44 36 -38 3 -45 -1 -84 -45z"/>
<path d="M4850 8612 c-27 -8 -60 -45 -60 -66 0 -21 54 -118 132 -233 94 -141
136 -175 190 -152 42 17 44 43 9 113 -55 113 -200 314 -240 335 -9 5 -23 6
-31 3z"/>
<path d="M10357 9811 c-26 -15 -83 -79 -335 -374 -133 -156 -148 -218 -54
-225 68 -5 103 20 189 131 42 56 119 149 170 207 130 146 156 205 111 247 -34
30 -51 33 -81 14z"/>
<path d="M9589 9012 c-24 -16 -108 -83 -187 -150 -79 -68 -177 -145 -218 -173
-124 -84 -577 -424 -605 -455 -40 -43 -50 -69 -40 -96 25 -65 93 -64 197 4 78
50 476 353 694 528 80 63 173 135 207 159 69 48 110 112 98 153 -20 64 -74 75
-146 30z"/>
<path d="M2673 9295 c-36 -15 -49 -48 -38 -92 7 -31 51 -75 209 -213 151 -132
591 -582 953 -975 322 -349 373 -400 415 -410 38 -10 83 32 74 68 -29 118
-1259 1420 -1520 1609 -44 32 -49 32 -93 13z"/>
<path d="M2380 8550 c-44 -44 -21 -93 109 -238 151 -168 461 -436 816 -703
143 -108 192 -140 255 -166 75 -31 115 -30 136 2 29 44 5 78 -105 150 -53 35
-182 134 -286 222 -105 87 -226 185 -270 218 -168 126 -353 297 -456 422 -89
108 -154 138 -199 93z"/>
<path d="M3993 7259 c-24 -25 -15 -67 24 -105 42 -42 206 -124 300 -150 60
-17 64 -16 83 1 11 10 20 25 20 33 0 34 -95 107 -214 166 -123 60 -191 78
-213 55z"/>
<path d="M11243 9196 c-68 -31 -66 -103 2 -132 70 -29 199 -13 234 30 51 61
-142 144 -236 102z"/>
<path d="M10434 8431 c-90 -32 -273 -130 -514 -274 -397 -237 -453 -277 -487
-341 -14 -27 -14 -31 3 -43 29 -22 78 -8 184 51 52 29 142 77 200 106 58 29
182 96 275 150 94 53 215 121 270 151 158 86 200 138 159 197 -18 26 -24 27
-90 3z"/>
<path d="M11577 7076 c-85 -23 -119 -80 -82 -133 22 -31 69 -37 180 -24 117
14 173 34 181 67 11 42 -4 74 -41 90 -42 17 -172 17 -238 0z"/>
<path d="M10985 6979 c-38 -5 -140 -25 -225 -45 -376 -86 -531 -112 -760 -129
-198 -14 -327 -27 -362 -36 -42 -11 -58 -43 -42 -87 44 -122 353 -104 1134 68
173 38 345 74 382 81 106 17 145 64 101 118 -31 38 -96 46 -228 30z"/>
<path d="M6346 6928 c-35 -31 -43 -77 -19 -106 13 -16 39 -26 96 -37 42 -8 95
-24 117 -35 97 -50 218 3 149 66 -15 14 -37 19 -86 19 -64 1 -66 2 -101 44
-34 41 -83 71 -116 71 -8 0 -26 -10 -40 -22z"/>
<path d="M10710 5925 c-52 -8 -162 -14 -245 -14 -82 0 -267 -9 -410 -20 -143
-11 -318 -22 -390 -26 -71 -4 -136 -11 -142 -17 -17 -14 -16 -53 2 -88 26 -51
57 -53 433 -35 367 17 443 25 535 56 36 12 74 18 92 15 16 -2 57 -10 90 -16
77 -15 244 -6 284 15 57 29 69 90 25 124 -32 25 -120 27 -274 6z"/>
<path d="M8867 5100 c-65 -51 -16 -139 103 -185 37 -14 128 -63 202 -109 139
-86 182 -106 230 -106 52 0 68 16 68 65 0 38 -4 47 -32 68 -42 31 -285 170
-403 230 -117 60 -134 63 -168 37z"/>
<path d="M7942 4829 c-21 -8 -42 -44 -42 -74 0 -7 17 -33 38 -57 39 -48 385
-361 430 -390 36 -24 67 -23 93 3 18 18 20 29 15 68 -5 40 -14 54 -69 106 -67
65 -354 316 -375 329 -26 16 -68 23 -90 15z"/>
<path d="M10043 4562 c-35 -11 -63 -39 -63 -65 0 -38 41 -83 145 -160 210
-154 587 -518 727 -702 42 -55 115 -145 162 -200 84 -99 97 -119 131 -202 21
-50 40 -69 77 -78 38 -10 88 39 88 86 0 51 -12 69 -344 519 -133 180 -849 825
-898 809 -2 -1 -13 -4 -25 -7z"/>
<path d="M2900 4803 c-50 -9 -456 -105 -509 -120 -142 -41 -517 -222 -577
-278 -40 -38 -42 -58 -9 -90 43 -44 100 -31 320 75 181 86 320 139 535 205
242 73 319 103 353 136 31 32 33 42 11 63 -15 16 -66 19 -124 9z"/>
<path d="M1127 4145 c-20 -8 -99 -54 -175 -103 -75 -49 -158 -101 -185 -116
-57 -34 -87 -70 -87 -106 0 -32 27 -60 58 -60 58 0 248 103 394 213 112 84
142 139 96 171 -27 19 -50 19 -101 1z"/>
<path d="M3300 3573 c-30 -20 -129 -81 -220 -135 -216 -130 -406 -254 -537
-352 -59 -43 -129 -90 -157 -105 -28 -15 -94 -60 -147 -101 -53 -41 -154 -117
-225 -168 -484 -349 -514 -373 -514 -406 0 -51 59 -82 116 -62 55 20 165 90
233 148 202 176 433 339 919 648 586 373 732 474 732 506 0 8 -11 26 -25 39
-38 39 -105 34 -175 -12z"/>
<path d="M7900 3708 c-43 -46 -23 -94 96 -233 78 -91 289 -357 391 -495 23
-30 93 -139 156 -242 110 -179 215 -322 429 -582 55 -66 129 -163 165 -215 81
-115 118 -158 154 -176 31 -17 55 -11 69 16 30 54 7 93 -274 467 -248 331
-339 460 -451 643 -42 68 -104 162 -138 209 -137 191 -386 509 -443 568 -53
53 -67 62 -98 62 -23 0 -42 -7 -56 -22z"/>
<path d="M7497 3222 c-23 -25 -21 -79 4 -126 46 -86 332 -450 504 -641 45 -49
120 -137 167 -195 118 -145 540 -555 642 -624 48 -32 76 -33 110 -1 28 26 32
49 13 81 -7 11 -97 103 -201 205 -187 183 -492 503 -679 713 -99 111 -289 357
-386 498 -29 42 -63 84 -76 92 -32 21 -78 20 -98 -2z"/>
<path d="M5077 4122 c-85 -57 -275 -409 -279 -518 -2 -45 17 -64 61 -64 56 0
88 41 178 230 44 91 99 194 122 230 33 50 41 72 39 100 -3 34 -4 35 -48 38
-31 2 -54 -3 -73 -16z"/>
<path d="M4895 2704 c-22 -23 -38 -64 -79 -210 -19 -71 -85 -277 -146 -459
-161 -481 -210 -659 -210 -768 0 -44 4 -58 24 -76 21 -20 27 -21 45 -9 35 21
75 119 134 328 31 108 101 340 155 515 157 503 176 581 160 640 -13 50 -53 69
-83 39z"/>
<path d="M5857 3922 c-21 -23 -30 -48 -72 -208 -150 -573 -200 -784 -251
-1071 -59 -335 -66 -409 -71 -776 -8 -564 31 -1058 92 -1177 25 -48 72 -54
112 -14 24 24 25 29 20 112 -3 48 -12 137 -21 198 -8 61 -20 222 -26 357 -6
135 -15 270 -21 299 -13 69 -13 171 0 231 6 26 16 128 21 225 6 97 19 240 30
317 11 77 24 183 30 235 11 97 100 517 196 922 54 228 66 332 42 356 -18 18
-63 15 -81 -6z"/>
<path d="M6041 2894 c-11 -14 -23 -49 -26 -79 -7 -53 -1 -482 11 -795 5 -139
-9 -375 -33 -567 -5 -39 -2 -46 30 -78 41 -41 69 -44 102 -11 49 49 73 195 77
471 3 185 -10 910 -18 972 -4 30 -15 53 -38 78 -41 43 -76 46 -105 9z"/>
<path d="M6041 1184 c-34 -43 -43 -91 -48 -244 -6 -168 5 -214 53 -226 37 -9
76 13 86 51 13 50 31 282 26 342 -4 46 -10 61 -32 80 -35 30 -60 29 -85 -3z"/>
<path d="M2454 2268 c-35 -26 -224 -191 -349 -303 -49 -44 -124 -109 -165
-144 -88 -74 -112 -103 -112 -137 0 -70 86 -73 176 -6 73 55 533 508 541 532
8 26 -21 80 -44 80 -10 0 -31 -10 -47 -22z"/>
</g>
</svg>
